<svg width="218" height="84" viewBox="0 0 218 84" fill="none" xmlns="http://www.w3.org/2000/svg">
<path d="M111.084 5.242V6.278H108.424V15H107.15V6.278H104.476V5.242H111.084ZM115.858 15.126C115.14 15.126 114.486 14.9627 113.898 14.636C113.32 14.3093 112.862 13.8473 112.526 13.25C112.2 12.6433 112.036 11.9433 112.036 11.15C112.036 10.366 112.204 9.67533 112.54 9.078C112.886 8.47133 113.352 8.00933 113.94 7.692C114.528 7.36533 115.186 7.202 115.914 7.202C116.642 7.202 117.3 7.36533 117.888 7.692C118.476 8.00933 118.938 8.46667 119.274 9.064C119.62 9.66133 119.792 10.3567 119.792 11.15C119.792 11.9433 119.615 12.6433 119.26 13.25C118.915 13.8473 118.444 14.3093 117.846 14.636C117.249 14.9627 116.586 15.126 115.858 15.126ZM115.858 14.006C116.316 14.006 116.745 13.8987 117.146 13.684C117.548 13.4693 117.87 13.1473 118.112 12.718C118.364 12.2887 118.49 11.766 118.49 11.15C118.49 10.534 118.369 10.0113 118.126 9.582C117.884 9.15267 117.566 8.83533 117.174 8.63C116.782 8.41533 116.358 8.308 115.9 8.308C115.434 8.308 115.004 8.41533 114.612 8.63C114.23 8.83533 113.922 9.15267 113.688 9.582C113.455 10.0113 113.338 10.534 113.338 11.15C113.338 11.7753 113.45 12.3027 113.674 12.732C113.908 13.1613 114.216 13.4833 114.598 13.698C114.981 13.9033 115.401 14.006 115.858 14.006ZM122.881 8.378V12.9C122.881 13.2733 122.961 13.5393 123.119 13.698C123.278 13.8473 123.553 13.922 123.945 13.922H124.883V15H123.735C123.026 15 122.494 14.8367 122.139 14.51C121.785 14.1833 121.607 13.6467 121.607 12.9V8.378H120.613V7.328H121.607V5.396H122.881V7.328H124.883V8.378H122.881ZM125.811 11.136C125.811 10.352 125.97 9.666 126.287 9.078C126.604 8.48067 127.038 8.01867 127.589 7.692C128.149 7.36533 128.77 7.202 129.451 7.202C130.123 7.202 130.706 7.34667 131.201 7.636C131.696 7.92533 132.064 8.28933 132.307 8.728V7.328H133.595V15H132.307V13.572C132.055 14.02 131.677 14.3933 131.173 14.692C130.678 14.9813 130.1 15.126 129.437 15.126C128.756 15.126 128.14 14.958 127.589 14.622C127.038 14.286 126.604 13.8147 126.287 13.208C125.97 12.6013 125.811 11.9107 125.811 11.136ZM132.307 11.15C132.307 10.5713 132.19 10.0673 131.957 9.638C131.724 9.20867 131.406 8.882 131.005 8.658C130.613 8.42467 130.179 8.308 129.703 8.308C129.227 8.308 128.793 8.42 128.401 8.644C128.009 8.868 127.696 9.19467 127.463 9.624C127.23 10.0533 127.113 10.5573 127.113 11.136C127.113 11.724 127.23 12.2373 127.463 12.676C127.696 13.1053 128.009 13.4367 128.401 13.67C128.793 13.894 129.227 14.006 129.703 14.006C130.179 14.006 130.613 13.894 131.005 13.67C131.406 13.4367 131.724 13.1053 131.957 12.676C132.19 12.2373 132.307 11.7287 132.307 11.15ZM136.882 4.64V15H135.608V4.64H136.882ZM142.03 10.114C142.03 9.162 142.244 8.308 142.674 7.552C143.103 6.78667 143.686 6.18933 144.424 5.76C145.17 5.33067 145.996 5.116 146.902 5.116C147.966 5.116 148.894 5.37267 149.688 5.886C150.481 6.39933 151.06 7.12733 151.424 8.07H149.898C149.627 7.482 149.235 7.02933 148.722 6.712C148.218 6.39467 147.611 6.236 146.902 6.236C146.22 6.236 145.609 6.39467 145.068 6.712C144.526 7.02933 144.102 7.482 143.794 8.07C143.486 8.64867 143.332 9.33 143.332 10.114C143.332 10.8887 143.486 11.57 143.794 12.158C144.102 12.7367 144.526 13.1847 145.068 13.502C145.609 13.8193 146.22 13.978 146.902 13.978C147.611 13.978 148.218 13.824 148.722 13.516C149.235 13.1987 149.627 12.746 149.898 12.158H151.424C151.06 13.0913 150.481 13.8147 149.688 14.328C148.894 14.832 147.966 15.084 146.902 15.084C145.996 15.084 145.17 14.874 144.424 14.454C143.686 14.0247 143.103 13.432 142.674 12.676C142.244 11.92 142.03 11.066 142.03 10.114ZM159.984 7.328V15H158.71V13.866C158.467 14.258 158.127 14.566 157.688 14.79C157.259 15.0047 156.783 15.112 156.26 15.112C155.663 15.112 155.126 14.9907 154.65 14.748C154.174 14.496 153.796 14.1227 153.516 13.628C153.245 13.1333 153.11 12.5313 153.11 11.822V7.328H154.37V11.654C154.37 12.41 154.561 12.9933 154.944 13.404C155.327 13.8053 155.849 14.006 156.512 14.006C157.193 14.006 157.73 13.796 158.122 13.376C158.514 12.956 158.71 12.3447 158.71 11.542V7.328H159.984ZM164.711 15.126C164.123 15.126 163.596 15.028 163.129 14.832C162.662 14.6267 162.294 14.3467 162.023 13.992C161.752 13.628 161.603 13.2127 161.575 12.746H162.891C162.928 13.1287 163.106 13.4413 163.423 13.684C163.75 13.9267 164.174 14.048 164.697 14.048C165.182 14.048 165.565 13.9407 165.845 13.726C166.125 13.5113 166.265 13.2407 166.265 12.914C166.265 12.578 166.116 12.3307 165.817 12.172C165.518 12.004 165.056 11.8407 164.431 11.682C163.862 11.5327 163.395 11.3833 163.031 11.234C162.676 11.0753 162.368 10.8467 162.107 10.548C161.855 10.24 161.729 9.83867 161.729 9.344C161.729 8.952 161.846 8.59267 162.079 8.266C162.312 7.93933 162.644 7.68267 163.073 7.496C163.502 7.3 163.992 7.202 164.543 7.202C165.392 7.202 166.078 7.41667 166.601 7.846C167.124 8.27533 167.404 8.86333 167.441 9.61H166.167C166.139 9.20867 165.976 8.88667 165.677 8.644C165.388 8.40133 164.996 8.28 164.501 8.28C164.044 8.28 163.68 8.378 163.409 8.574C163.138 8.77 163.003 9.02667 163.003 9.344C163.003 9.596 163.082 9.806 163.241 9.974C163.409 10.1327 163.614 10.2633 163.857 10.366C164.109 10.4593 164.454 10.5667 164.893 10.688C165.444 10.8373 165.892 10.9867 166.237 11.136C166.582 11.276 166.876 11.4907 167.119 11.78C167.371 12.0693 167.502 12.4473 167.511 12.914C167.511 13.334 167.394 13.712 167.161 14.048C166.928 14.384 166.596 14.65 166.167 14.846C165.747 15.0327 165.262 15.126 164.711 15.126ZM170.724 8.378V12.9C170.724 13.2733 170.803 13.5393 170.962 13.698C171.12 13.8473 171.396 13.922 171.788 13.922H172.726V15H171.578C170.868 15 170.336 14.8367 169.982 14.51C169.627 14.1833 169.45 13.6467 169.45 12.9V8.378H168.456V7.328H169.45V5.396H170.724V7.328H172.726V8.378H170.724ZM177.475 15.126C176.757 15.126 176.103 14.9627 175.515 14.636C174.937 14.3093 174.479 13.8473 174.143 13.25C173.817 12.6433 173.653 11.9433 173.653 11.15C173.653 10.366 173.821 9.67533 174.157 9.078C174.503 8.47133 174.969 8.00933 175.557 7.692C176.145 7.36533 176.803 7.202 177.531 7.202C178.259 7.202 178.917 7.36533 179.505 7.692C180.093 8.00933 180.555 8.46667 180.891 9.064C181.237 9.66133 181.409 10.3567 181.409 11.15C181.409 11.9433 181.232 12.6433 180.877 13.25C180.532 13.8473 180.061 14.3093 179.463 14.636C178.866 14.9627 178.203 15.126 177.475 15.126ZM177.475 14.006C177.933 14.006 178.362 13.8987 178.763 13.684C179.165 13.4693 179.487 13.1473 179.729 12.718C179.981 12.2887 180.107 11.766 180.107 11.15C180.107 10.534 179.986 10.0113 179.743 9.582C179.501 9.15267 179.183 8.83533 178.791 8.63C178.399 8.41533 177.975 8.308 177.517 8.308C177.051 8.308 176.621 8.41533 176.229 8.63C175.847 8.83533 175.539 9.15267 175.305 9.582C175.072 10.0113 174.955 10.534 174.955 11.15C174.955 11.7753 175.067 12.3027 175.291 12.732C175.525 13.1613 175.833 13.4833 176.215 13.698C176.598 13.9033 177.018 14.006 177.475 14.006ZM192.17 7.188C192.768 7.188 193.3 7.314 193.766 7.566C194.233 7.80867 194.602 8.17733 194.872 8.672C195.143 9.16667 195.278 9.76867 195.278 10.478V15H194.018V10.66C194.018 9.89467 193.827 9.31133 193.444 8.91C193.071 8.49933 192.562 8.294 191.918 8.294C191.256 8.294 190.728 8.50867 190.336 8.938C189.944 9.358 189.748 9.96933 189.748 10.772V15H188.488V10.66C188.488 9.89467 188.297 9.31133 187.914 8.91C187.541 8.49933 187.032 8.294 186.388 8.294C185.726 8.294 185.198 8.50867 184.806 8.938C184.414 9.358 184.218 9.96933 184.218 10.772V15H182.944V7.328H184.218V8.434C184.47 8.03267 184.806 7.72467 185.226 7.51C185.656 7.29533 186.127 7.188 186.64 7.188C187.284 7.188 187.854 7.33267 188.348 7.622C188.843 7.91133 189.212 8.336 189.454 8.896C189.669 8.35467 190.024 7.93467 190.518 7.636C191.013 7.33733 191.564 7.188 192.17 7.188ZM204.228 10.87C204.228 11.1127 204.214 11.3693 204.186 11.64H198.054C198.101 12.396 198.357 12.9887 198.824 13.418C199.3 13.838 199.874 14.048 200.546 14.048C201.097 14.048 201.554 13.922 201.918 13.67C202.291 13.4087 202.553 13.0633 202.702 12.634H204.074C203.869 13.3713 203.458 13.9733 202.842 14.44C202.226 14.8973 201.461 15.126 200.546 15.126C199.818 15.126 199.165 14.9627 198.586 14.636C198.017 14.3093 197.569 13.8473 197.242 13.25C196.915 12.6433 196.752 11.9433 196.752 11.15C196.752 10.3567 196.911 9.66133 197.228 9.064C197.545 8.46667 197.989 8.00933 198.558 7.692C199.137 7.36533 199.799 7.202 200.546 7.202C201.274 7.202 201.918 7.36067 202.478 7.678C203.038 7.99533 203.467 8.434 203.766 8.994C204.074 9.54467 204.228 10.17 204.228 10.87ZM202.912 10.604C202.912 10.1187 202.805 9.70333 202.59 9.358C202.375 9.00333 202.081 8.73733 201.708 8.56C201.344 8.37333 200.938 8.28 200.49 8.28C199.846 8.28 199.295 8.48533 198.838 8.896C198.39 9.30667 198.133 9.876 198.068 10.604H202.912ZM207.044 8.574C207.268 8.13533 207.585 7.79467 207.996 7.552C208.416 7.30933 208.924 7.188 209.522 7.188V8.504H209.186C207.758 8.504 207.044 9.27867 207.044 10.828V15H205.77V7.328H207.044V8.574ZM213.568 15.126C212.98 15.126 212.453 15.028 211.986 14.832C211.52 14.6267 211.151 14.3467 210.88 13.992C210.61 13.628 210.46 13.2127 210.432 12.746H211.748C211.786 13.1287 211.963 13.4413 212.28 13.684C212.607 13.9267 213.032 14.048 213.554 14.048C214.04 14.048 214.422 13.9407 214.702 13.726C214.982 13.5113 215.122 13.2407 215.122 12.914C215.122 12.578 214.973 12.3307 214.674 12.172C214.376 12.004 213.914 11.8407 213.288 11.682C212.719 11.5327 212.252 11.3833 211.888 11.234C211.534 11.0753 211.226 10.8467 210.964 10.548C210.712 10.24 210.586 9.83867 210.586 9.344C210.586 8.952 210.703 8.59267 210.936 8.266C211.17 7.93933 211.501 7.68267 211.93 7.496C212.36 7.3 212.85 7.202 213.4 7.202C214.25 7.202 214.936 7.41667 215.458 7.846C215.981 8.27533 216.261 8.86333 216.298 9.61H215.024C214.996 9.20867 214.833 8.88667 214.534 8.644C214.245 8.40133 213.853 8.28 213.358 8.28C212.901 8.28 212.537 8.378 212.266 8.574C211.996 8.77 211.86 9.02667 211.86 9.344C211.86 9.596 211.94 9.806 212.098 9.974C212.266 10.1327 212.472 10.2633 212.714 10.366C212.966 10.4593 213.312 10.5667 213.75 10.688C214.301 10.8373 214.749 10.9867 215.094 11.136C215.44 11.276 215.734 11.4907 215.976 11.78C216.228 12.0693 216.359 12.4473 216.368 12.914C216.368 13.334 216.252 13.712 216.018 14.048C215.785 14.384 215.454 14.65 215.024 14.846C214.604 15.0327 214.119 15.126 213.568 15.126Z" fill="#ACACAC"/>
<path d="M121.376 32.544H111.008V38.016C111.456 37.4613 112.096 37.0133 112.928 36.672C113.76 36.3093 114.645 36.128 115.584 36.128C117.291 36.128 118.688 36.5013 119.776 37.248C120.864 37.9947 121.653 38.9547 122.144 40.128C122.635 41.28 122.88 42.5173 122.88 43.84C122.88 46.2933 122.176 48.2667 120.768 49.76C119.381 51.2533 117.397 52 114.816 52C112.384 52 110.443 51.392 108.992 50.176C107.541 48.96 106.72 47.3707 106.528 45.408H110.88C111.072 46.2613 111.499 46.944 112.16 47.456C112.843 47.968 113.707 48.224 114.752 48.224C116.011 48.224 116.96 47.8293 117.6 47.04C118.24 46.2507 118.56 45.2053 118.56 43.904C118.56 42.5813 118.229 41.5787 117.568 40.896C116.928 40.192 115.979 39.84 114.72 39.84C113.824 39.84 113.077 40.064 112.48 40.512C111.883 40.96 111.456 41.5573 111.2 42.304H106.912V28.608H121.376V32.544ZM131.378 47.296L127.634 56.288H124.754L126.834 47.296H131.378ZM133.583 47.456V43.936L144.047 28.96H149.263V43.552H152.079V47.456H149.263V52H144.783V47.456H133.583ZM145.071 33.76L138.511 43.552H145.071V33.76ZM156.019 46.944C158.067 45.2373 159.699 43.8187 160.915 42.688C162.131 41.536 163.144 40.3413 163.955 39.104C164.766 37.8667 165.171 36.6507 165.171 35.456C165.171 34.368 164.915 33.5147 164.403 32.896C163.891 32.2773 163.102 31.968 162.035 31.968C160.968 31.968 160.147 32.3307 159.571 33.056C158.995 33.76 158.696 34.7307 158.675 35.968H154.323C154.408 33.408 155.166 31.4667 156.595 30.144C158.046 28.8213 159.88 28.16 162.099 28.16C164.531 28.16 166.398 28.8107 167.699 30.112C169 31.392 169.651 33.088 169.651 35.2C169.651 36.864 169.203 38.4533 168.307 39.968C167.411 41.4827 166.387 42.8053 165.235 43.936C164.083 45.0453 162.579 46.3893 160.723 47.968H170.163V51.68H154.355V48.352L156.019 46.944ZM172.73 34.816C172.837 32.6827 173.583 31.04 174.97 29.888C176.378 28.7147 178.223 28.128 180.506 28.128C182.063 28.128 183.397 28.4053 184.506 28.96C185.615 29.4933 186.447 30.2293 187.002 31.168C187.578 32.0853 187.866 33.1307 187.866 34.304C187.866 35.648 187.514 36.7893 186.81 37.728C186.127 38.6453 185.306 39.264 184.346 39.584V39.712C185.583 40.096 186.543 40.7787 187.226 41.76C187.93 42.7413 188.282 44 188.282 45.536C188.282 46.816 187.983 47.9573 187.386 48.96C186.81 49.9627 185.946 50.752 184.794 51.328C183.663 51.8827 182.298 52.16 180.698 52.16C178.287 52.16 176.325 51.552 174.81 50.336C173.295 49.12 172.495 47.328 172.41 44.96H176.762C176.805 46.0053 177.157 46.848 177.818 47.488C178.501 48.1067 179.429 48.416 180.602 48.416C181.69 48.416 182.522 48.1173 183.098 47.52C183.695 46.9013 183.994 46.112 183.994 45.152C183.994 43.872 183.589 42.9547 182.778 42.4C181.967 41.8453 180.709 41.568 179.002 41.568H178.074V37.888H179.002C182.031 37.888 183.546 36.8747 183.546 34.848C183.546 33.9307 183.269 33.216 182.714 32.704C182.181 32.192 181.402 31.936 180.378 31.936C179.375 31.936 178.597 32.2133 178.042 32.768C177.509 33.3013 177.199 33.984 177.114 34.816H172.73Z" fill="#333333"/>
<circle cx="42" cy="42" r="42" fill="url(#paint0_linear_501_198)"/>
<path d="M38.0302 41.0229C37.8552 41.0054 37.6452 41.0054 37.4527 41.0229C33.2877 40.8829 29.9802 37.4704 29.9802 33.2704C29.9802 28.9829 33.4452 25.5004 37.7502 25.5004C42.0377 25.5004 45.5202 28.9829 45.5202 33.2704C45.5027 37.4704 42.1952 40.8829 38.0302 41.0229Z" stroke="#00AC4F" stroke-width="2.625" stroke-linecap="round" stroke-linejoin="round"/>
<path d="M50.7172 28.9996C54.1122 28.9996 56.8422 31.7471 56.8422 35.1246C56.8422 38.4321 54.2172 41.1271 50.9447 41.2496C50.8047 41.2321 50.6472 41.2321 50.4897 41.2496" stroke="#00AC4F" stroke-width="2.625" stroke-linecap="round" stroke-linejoin="round"/>
<path d="M29.2805 47.4796C25.0455 50.3146 25.0455 54.9346 29.2805 57.7521C34.093 60.9721 41.9855 60.9721 46.798 57.7521C51.033 54.9171 51.033 50.2971 46.798 47.4796C42.003 44.2771 34.1105 44.2771 29.2805 47.4796Z" stroke="#00AC4F" stroke-width="2.625" stroke-linecap="round" stroke-linejoin="round"/>
<path d="M54.0947 57.0004C55.3547 56.7379 56.5447 56.2304 57.5247 55.4779C60.2547 53.4304 60.2547 50.0529 57.5247 48.0054C56.5622 47.2704 55.3897 46.7804 54.1472 46.5004" stroke="#00AC4F" stroke-width="2.625" stroke-linecap="round" stroke-linejoin="round"/>
<path d="M127.324 71.148V69.24H130.648V78H128.512V71.148H127.324ZM136.264 71.604C136.2 71.308 136.088 71.088 135.928 70.944C135.768 70.792 135.54 70.716 135.244 70.716C134.788 70.716 134.46 70.916 134.26 71.316C134.06 71.708 133.956 72.332 133.948 73.188C134.124 72.908 134.376 72.688 134.704 72.528C135.04 72.368 135.408 72.288 135.808 72.288C136.592 72.288 137.22 72.536 137.692 73.032C138.172 73.528 138.412 74.22 138.412 75.108C138.412 75.692 138.292 76.204 138.052 76.644C137.82 77.084 137.476 77.428 137.02 77.676C136.572 77.924 136.04 78.048 135.424 78.048C134.192 78.048 133.336 77.664 132.856 76.896C132.376 76.12 132.136 75.008 132.136 73.56C132.136 72.04 132.388 70.912 132.892 70.176C133.404 69.432 134.22 69.06 135.34 69.06C135.94 69.06 136.444 69.18 136.852 69.42C137.268 69.652 137.58 69.96 137.788 70.344C138.004 70.728 138.132 71.148 138.172 71.604H136.264ZM135.316 73.908C134.972 73.908 134.684 74.012 134.452 74.22C134.228 74.42 134.116 74.708 134.116 75.084C134.116 75.468 134.22 75.768 134.428 75.984C134.644 76.2 134.948 76.308 135.34 76.308C135.692 76.308 135.968 76.204 136.168 75.996C136.376 75.78 136.48 75.488 136.48 75.12C136.48 74.744 136.38 74.448 136.18 74.232C135.98 74.016 135.692 73.908 135.316 73.908ZM139.284 71.448C139.284 70.8 139.468 70.3 139.836 69.948C140.212 69.596 140.696 69.42 141.288 69.42C141.88 69.42 142.36 69.596 142.728 69.948C143.096 70.3 143.28 70.8 143.28 71.448C143.28 72.096 143.096 72.596 142.728 72.948C142.36 73.3 141.88 73.476 141.288 73.476C140.696 73.476 140.212 73.3 139.836 72.948C139.468 72.596 139.284 72.096 139.284 71.448ZM147.432 69.552L142.812 78H140.832L145.452 69.552H147.432ZM141.276 70.62C140.892 70.62 140.7 70.896 140.7 71.448C140.7 71.992 140.892 72.264 141.276 72.264C141.46 72.264 141.604 72.196 141.708 72.06C141.812 71.924 141.864 71.72 141.864 71.448C141.864 70.896 141.668 70.62 141.276 70.62ZM144.996 76.104C144.996 75.456 145.18 74.956 145.548 74.604C145.916 74.252 146.396 74.076 146.988 74.076C147.58 74.076 148.06 74.252 148.428 74.604C148.796 74.956 148.98 75.456 148.98 76.104C148.98 76.752 148.796 77.252 148.428 77.604C148.06 77.956 147.58 78.132 146.988 78.132C146.396 78.132 145.916 77.956 145.548 77.604C145.18 77.252 144.996 76.752 144.996 76.104ZM146.976 75.276C146.792 75.276 146.648 75.344 146.544 75.48C146.448 75.616 146.4 75.824 146.4 76.104C146.4 76.648 146.592 76.92 146.976 76.92C147.16 76.92 147.304 76.852 147.408 76.716C147.512 76.58 147.564 76.376 147.564 76.104C147.564 75.832 147.512 75.628 147.408 75.492C147.304 75.348 147.16 75.276 146.976 75.276Z" fill="#00AC4F"/>
<path d="M154.569 72.324V76.2C154.569 76.52 154.637 76.748 154.773 76.884C154.909 77.012 155.145 77.076 155.481 77.076H156.285V78H155.301C154.693 78 154.237 77.86 153.933 77.58C153.629 77.3 153.477 76.84 153.477 76.2V72.324H152.625V71.424H153.477V69.768H154.569V71.424H156.285V72.324H154.569ZM160.752 71.304C161.248 71.304 161.696 71.412 162.096 71.628C162.496 71.836 162.808 72.152 163.032 72.576C163.264 73 163.38 73.516 163.38 74.124V78H162.3V74.28C162.3 73.624 162.136 73.124 161.808 72.78C161.48 72.428 161.032 72.252 160.464 72.252C159.888 72.252 159.428 72.432 159.084 72.792C158.748 73.152 158.58 73.676 158.58 74.364V78H157.488V69.12H158.58V72.36C158.796 72.024 159.092 71.764 159.468 71.58C159.852 71.396 160.28 71.304 160.752 71.304ZM165.608 70.356C165.4 70.356 165.224 70.284 165.08 70.14C164.936 69.996 164.864 69.82 164.864 69.612C164.864 69.404 164.936 69.228 165.08 69.084C165.224 68.94 165.4 68.868 165.608 68.868C165.808 68.868 165.976 68.94 166.112 69.084C166.256 69.228 166.328 69.404 166.328 69.612C166.328 69.82 166.256 69.996 166.112 70.14C165.976 70.284 165.808 70.356 165.608 70.356ZM166.136 71.424V78H165.044V71.424H166.136ZM170.205 78.108C169.701 78.108 169.249 78.024 168.849 77.856C168.449 77.68 168.133 77.44 167.901 77.136C167.669 76.824 167.541 76.468 167.517 76.068H168.645C168.677 76.396 168.829 76.664 169.101 76.872C169.381 77.08 169.745 77.184 170.193 77.184C170.609 77.184 170.937 77.092 171.177 76.908C171.417 76.724 171.537 76.492 171.537 76.212C171.537 75.924 171.409 75.712 171.153 75.576C170.897 75.432 170.501 75.292 169.965 75.156C169.477 75.028 169.077 74.9 168.765 74.772C168.461 74.636 168.197 74.44 167.973 74.184C167.757 73.92 167.649 73.576 167.649 73.152C167.649 72.816 167.749 72.508 167.949 72.228C168.149 71.948 168.433 71.728 168.801 71.568C169.169 71.4 169.589 71.316 170.061 71.316C170.789 71.316 171.377 71.5 171.825 71.868C172.273 72.236 172.513 72.74 172.545 73.38H171.453C171.429 73.036 171.289 72.76 171.033 72.552C170.785 72.344 170.449 72.24 170.025 72.24C169.633 72.24 169.321 72.324 169.089 72.492C168.857 72.66 168.741 72.88 168.741 73.152C168.741 73.368 168.809 73.548 168.945 73.692C169.089 73.828 169.265 73.94 169.473 74.028C169.689 74.108 169.985 74.2 170.361 74.304C170.833 74.432 171.217 74.56 171.513 74.688C171.809 74.808 172.061 74.992 172.269 75.24C172.485 75.488 172.597 75.812 172.605 76.212C172.605 76.572 172.505 76.896 172.305 77.184C172.105 77.472 171.821 77.7 171.453 77.868C171.093 78.028 170.677 78.108 170.205 78.108ZM185.014 71.304C185.526 71.304 185.982 71.412 186.382 71.628C186.782 71.836 187.098 72.152 187.33 72.576C187.562 73 187.678 73.516 187.678 74.124V78H186.598V74.28C186.598 73.624 186.434 73.124 186.106 72.78C185.786 72.428 185.35 72.252 184.798 72.252C184.23 72.252 183.778 72.436 183.442 72.804C183.106 73.164 182.938 73.688 182.938 74.376V78H181.858V74.28C181.858 73.624 181.694 73.124 181.366 72.78C181.046 72.428 180.61 72.252 180.058 72.252C179.49 72.252 179.038 72.436 178.702 72.804C178.366 73.164 178.198 73.688 178.198 74.376V78H177.106V71.424H178.198V72.372C178.414 72.028 178.702 71.764 179.062 71.58C179.43 71.396 179.834 71.304 180.274 71.304C180.826 71.304 181.314 71.428 181.738 71.676C182.162 71.924 182.478 72.288 182.686 72.768C182.87 72.304 183.174 71.944 183.598 71.688C184.022 71.432 184.494 71.304 185.014 71.304ZM192.217 78.108C191.601 78.108 191.041 77.968 190.537 77.688C190.041 77.408 189.649 77.012 189.361 76.5C189.081 75.98 188.941 75.38 188.941 74.7C188.941 74.028 189.085 73.436 189.373 72.924C189.669 72.404 190.069 72.008 190.573 71.736C191.077 71.456 191.641 71.316 192.265 71.316C192.889 71.316 193.453 71.456 193.957 71.736C194.461 72.008 194.857 72.4 195.145 72.912C195.441 73.424 195.589 74.02 195.589 74.7C195.589 75.38 195.437 75.98 195.133 76.5C194.837 77.012 194.433 77.408 193.921 77.688C193.409 77.968 192.841 78.108 192.217 78.108ZM192.217 77.148C192.609 77.148 192.977 77.056 193.321 76.872C193.665 76.688 193.941 76.412 194.149 76.044C194.365 75.676 194.473 75.228 194.473 74.7C194.473 74.172 194.369 73.724 194.161 73.356C193.953 72.988 193.681 72.716 193.345 72.54C193.009 72.356 192.645 72.264 192.253 72.264C191.853 72.264 191.485 72.356 191.149 72.54C190.821 72.716 190.557 72.988 190.357 73.356C190.157 73.724 190.057 74.172 190.057 74.7C190.057 75.236 190.153 75.688 190.345 76.056C190.545 76.424 190.809 76.7 191.137 76.884C191.465 77.06 191.825 77.148 192.217 77.148ZM200.109 71.304C200.909 71.304 201.557 71.548 202.053 72.036C202.549 72.516 202.797 73.212 202.797 74.124V78H201.717V74.28C201.717 73.624 201.553 73.124 201.225 72.78C200.897 72.428 200.449 72.252 199.881 72.252C199.305 72.252 198.845 72.432 198.501 72.792C198.165 73.152 197.997 73.676 197.997 74.364V78H196.905V71.424H197.997V72.36C198.213 72.024 198.505 71.764 198.873 71.58C199.249 71.396 199.661 71.304 200.109 71.304ZM205.793 72.324V76.2C205.793 76.52 205.861 76.748 205.997 76.884C206.133 77.012 206.369 77.076 206.705 77.076H207.509V78H206.525C205.917 78 205.461 77.86 205.157 77.58C204.853 77.3 204.701 76.84 204.701 76.2V72.324H203.849V71.424H204.701V69.768H205.793V71.424H207.509V72.324H205.793ZM211.976 71.304C212.472 71.304 212.92 71.412 213.32 71.628C213.72 71.836 214.032 72.152 214.256 72.576C214.488 73 214.604 73.516 214.604 74.124V78H213.524V74.28C213.524 73.624 213.36 73.124 213.032 72.78C212.704 72.428 212.256 72.252 211.688 72.252C211.112 72.252 210.652 72.432 210.308 72.792C209.972 73.152 209.804 73.676 209.804 74.364V78H208.712V69.12H209.804V72.36C210.02 72.024 210.316 71.764 210.692 71.58C211.076 71.396 211.504 71.304 211.976 71.304Z" fill="#292D32"/>
<path d="M114 80L114 68" stroke="#00AC4F" stroke-width="2" stroke-linecap="round" stroke-linejoin="round"/>
<path d="M108.167 73L114 67.1667L119.833 73" stroke="#00AC4F" stroke-width="2" stroke-linecap="round" stroke-linejoin="round"/>
<defs>
<linearGradient id="paint0_linear_501_198" x1="74.55" y1="2.14197e-06" x2="42" y2="84" gradientUnits="userSpaceOnUse">
<stop stop-color="#D3FFE7"/>
<stop offset="1" stop-color="#EFFFF6"/>
</linearGradient>
</defs>
</svg>
